# xmcd
#
# Track frame offsets: 
#        150
#        18230
#        36210
#        60350
#        78277
#        104060
#        120927
#        136840
#        158900
#        182145
#
# Disc length: 2851 seconds
#
# Revision: 2
# Processed by: cddbd v1.5.2PL0 Copyright (c) Steve Scherf et al.
# Submitted via: ExactAudioCopy v0.95b3
#
DISCID=750b210a
DTITLE=Les Dudek - Deeper Shades Of Blues
DYEAR=1994
DGENRE=Blues
TTITLE0=Leavin' My Blues Behind
TTITLE1=Love With You
TTITLE2=Deeper Shades Of Blues
TTITLE3=Strange Love
TTITLE4=Assault And Battery
TTITLE5=Your Love
TTITLE6=Maybe Forever
TTITLE7=Come Back To Me
TTITLE8=Moulin Rouge
TTITLE9=You Make Me Ill
EXTD=
EXTT0=
EXTT1=
EXTT2=
EXTT3=
EXTT4=
EXTT5=
EXTT6=
EXTT7=
EXTT8=
EXTT9=
PLAYORDER=
